#!OML:ASF G:\ViconDB\ViconDB\414\test\team2\shane.ASF
:FULLY-SPECIFIED
:DEGREES
189
root 4.25752 16.9787 32.0542 -13.4436 0.365599 -5.2255
lowerback 8.97114 4.03999 6.38992
upperback 3.21021 5.95754 1.65037
thorax -1.19486 3.00579 -2.41475
lowerneck -12.6975 -8.62109 -10.2558
upperneck 24.7198 -11.7187 7.19425
head 11.1466 -5.50263 2.66936
rclavicle -5.2181e-016 1.25234e-014
rhumerus -30.8099 19.4117 -96.1588
rradius 113.399
rwrist 42.3632
rhand -53.6583 -32.1836
rfingers 7.12502
rthumb -26.0962 -60.4107
lclavicle 3.98315e-014 1.78906e-014
lhumerus -77.6736 -30.0469 97.415
lradius 60.9839
lwrist -16.3251
lhand -50.6379 6.43364
lfingers 7.12502
lthumb -23.2013 35.0562
rfemur 24.7229 -11.3034 19.2867
rtibia 32.8003
rfoot -1.32945 6.95712
rtoes -17.1277
lfemur -20.4872 7.15465 -11.4244
ltibia 46.5912
lfoot -8.0069 -12.7849
ltoes -10.1613
190
root 4.25914 17.0457 32.4851 -13.6827 0.41817 -5.34784
lowerback 8.68289 4.10707 6.28939
upperback 3.4113 6.0083 1.74814
thorax -0.843964 3.04574 -2.22758
lowerneck -13.2473 -8.76755 -10.6425
upperneck 25.2184 -11.8883 7.4291
head 11.5071 -5.56664 2.76832
rclavicle 5.35911e-014 -2.40529e-014
rhumerus -31.6732 20.5038 -95.8471
rradius 114.719
rwrist 41.7895
rhand -53.1051 -30.6546
rfingers 7.12502
rthumb -25.5665 -58.9588
lclavicle 3.98315e-014 1.78906e-014
lhumerus -77.6736 -30.0469 97.415
lradius 60.9839
lwrist -16.3251
lhand -50.6379 6.43364
lfingers 7.12502
lthumb -23.2013 35.0562
rfemur 25.1103 -11.0329 19.1104
rtibia 34.0226
rfoot 2.25176 7.34051
rtoes -14.8105
lfemur -20.123 8.12003 -11.8358
ltibia 43.2728
lfoot -7.03459 -13.3575
ltoes -10.8108
191
root 4.2643 17.102 32.9143 -13.961 0.432355 -5.46494
lowerback 9.5754 4.08626 6.61621
upperback 2.93203 6.09719 1.44911
thorax -1.75844 3.05191 -2.82408
lowerneck -13.3691 -8.78098 -10.4448
upperneck 26.0224 -12.059 7.57081
head 11.8554 -5.59758 2.75966
rclavicle 1.77664e-015 -4.37326e-015
rhumerus -31.6732 20.5038 -95.8471
rradius 114.719
rwrist 41.7895
rhand -53.1051 -30.6546
rfingers 7.12502
rthumb -25.5665 -58.9588
lclavicle 3.98315e-014 1.78906e-014
lhumerus -77.6736 -30.0469 97.415
lradius 60.9839
lwrist -16.3251
lhand -50.6379 6.43364
lfingers 7.12502
lthumb -23.2013 35.0562
rfemur 25.1832 -10.7725 18.8854
rtibia 35.8331
rfoot 5.46929 7.49013
rtoes -10.1429
lfemur -19.747 9.18596 -12.1808
ltibia 40.5971
lfoot -5.93346 -13.3791
ltoes -10.4785
192
root 4.2623 17.1166 33.3412 -14.3286 0.41478 -5.80448
lowerback 9.30112 4.05085 6.49183
upperback 3.23443 6.00751 1.6525
thorax -1.33618 3.02754 -2.49927
lowerneck -13.825 -8.79675 -10.5488
upperneck 26.167 -12.0737 7.73708
head 12.0256 -5.5788 2.8186
rclavicle -1.26837e-013 -2.26615e-014
rhumerus -34.4645 22.6681 -96.4953
rradius 116.624
rwrist 39.3471
rhand -52.313 -27.9418
rfingers 7.12502
rthumb -24.8075 -56.3527
lclavicle 3.98315e-014 1.78906e-014
lhumerus -77.6736 -30.0469 97.415
lradius 60.9839
lwrist -16.3251
lhand -50.6379 6.43364
lfingers 7.12502
lthumb -23.2013 35.0562
rfemur 25.3092 -10.8021 18.9232
rtibia 37.8088
rfoot 7.39364 6.91425
rtoes -7.75262
lfemur -19.1371 10.5372 -12.2618
ltibia 38.1938
lfoot -5.40587 -13.6983
ltoes -11.5167
193
root 4.26029 17.1236 33.7661 -14.6962 0.514946 -5.94326
lowerback 9.69074 4.00225 6.29595
upperback 3.13202 5.96298 1.69224
thorax -1.68625 2.99055 -2.38735
lowerneck -14.0353 -8.76395 -10.5019
upperneck 26.5417 -12.0863 7.84496
head 12.2218 -5.55672 2.84407
rclavicle -6.51765e-014 1.15295e-014
rhumerus -36.1031 23.7365 -96.7568
rradius 117.153
rwrist 38.4618
rhand -52.0419 -27.8589
rfingers 7.12502
rthumb -24.5477 -56.3053
lclavicle 3.98315e-014 1.78906e-014
lhumerus -77.6736 -30.0469 97.415
lradius 60.9839
lwrist -16.3251
lhand -50.6379 6.43364
lfingers 7.12502
lthumb -23.2013 35.0562
rfemur 25.1195 -10.7965 18.6825
rtibia 40.4431
rfoot 7.06325 5.34225
rtoes -6.30943
lfemur -18.7622 11.7696 -12.5262
ltibia 36.7594
lfoot -4.97972 -14.0555
ltoes -11.5326
194
root 4.26029 17.1236 33.7661 -14.6962 0.514946 -5.94326
lowerback 9.69074 4.00225 6.29595
upperback 3.13202 5.96298 1.69224
thorax -1.68625 2.99055 -2.38735
lowerneck -14.0353 -8.76395 -10.5019
upperneck 26.5417 -12.0863 7.84496
head 12.2218 -5.55672 2.84407
rclavicle -6.51765e-014 1.15295e-014
rhumerus -36.1031 23.7365 -96.7568
rradius 117.153
rwrist 38.4618
rhand -52.0419 -27.8589
rfingers 7.12502
rthumb -24.5477 -56.3053
lclavicle 3.98315e-014 1.78906e-014
lhumerus -77.6736 -30.0469 97.415
lradius 60.9839
lwrist -16.3251
lhand -50.6379 6.43364
lfingers 7.12502
lthumb -23.2013 35.0562
rfemur 25.1195 -10.7965 18.6825
rtibia 40.4431
rfoot 7.06325 5.34225
rtoes -6.30943
lfemur -18.7622 11.7696 -12.5262
ltibia 36.7594
lfoot -4.97972 -14.0555
ltoes -11.5326
195
root 4.24795 17.0947 34.6069 -15.4602 1.04513 -6.2708
lowerback 10.1613 3.73949 5.73681
upperback 3.19026 5.59853 1.81833
thorax -1.98316 2.79938 -1.95431
lowerneck -14.4622 -8.69184 -11.1732
upperneck 27.0393 -12.1677 9.00269
head 12.6583 -5.50235 3.37063
rclavicle 1.57785e-014 -1.47101e-014
rhumerus -36.1031 23.7365 -96.7568
rradius 117.153
rwrist 38.4618
rhand -52.0419 -27.8589
rfingers 7.12502
rthumb -24.5477 -56.3053
lclavicle 3.98315e-014 1.78906e-014
lhumerus -77.6736 -30.0469 97.415
lradius 60.9839
lwrist -16.3251
lhand -50.6379 6.43364
lfingers 7.12502
lthumb -23.2013 35.0562
rfemur 23.8634 -11.4837 17.9694
rtibia 47.142
rfoot 3.56506 0.427711
rtoes -8.87986
lfemur -17.7795 13.7966 -12.9368
ltibia 35.1062
lfoot -3.49949 -15.3512
ltoes -10.8384
196
root 4.23756 17.0713 34.9978 -15.4041 1.92494 -4.94587
lowerback 10.4108 3.65147 3.7384
upperback 3.11383 5.28986 1.50188
thorax -2.37736 2.63464 -1.1737
lowerneck -14.6477 -8.64912 -11.2057
upperneck 27.0371 -12.1432 9.20804
head 12.7111 -5.46414 3.45346
rclavicle -1.81639e-014 -6.75868e-015
rhumerus -40.0611 25.9454 -96.8672
rradius 116.974
rwrist 37.5284
rhand -51.5981 -26.5795
rfingers 7.12502
rthumb -24.1222 -55.083
lclavicle 3.98315e-014 1.78906e-014
lhumerus -77.6736 -30.0469 97.415
lradius 60.9839
lwrist -16.3251
lhand -50.6379 6.43364
lfingers 7.12502
lthumb -23.2013 35.0562
rfemur 21.9681 -12.282 15.7323
rtibia 51.6357
rfoot 2.1077 -0.740239
rtoes -9.78927
lfemur -17.3292 13.9376 -15.0055
ltibia 33.5057
lfoot -1.35994 -16.172
ltoes -10.9582
197
root 4.23756 17.0713 34.9978 -15.4041 1.92494 -4.94587
lowerback 10.4108 3.65147 3.7384
upperback 3.11383 5.28986 1.50188
thorax -2.37736 2.63464 -1.1737
lowerneck -14.6477 -8.64912 -11.2057
upperneck 27.0371 -12.1432 9.20804
head 12.7111 -5.46414 3.45346
rclavicle -1.81639e-014 -6.75868e-015
rhumerus -40.0611 25.9454 -96.8672
rradius 116.974
rwrist 37.5284
rhand -51.5981 -26.5795
rfingers 7.12502
rthumb -24.1222 -55.083
lclavicle 3.98315e-014 1.78906e-014
lhumerus -77.6736 -30.0469 97.415
lradius 60.9839
lwrist -16.3251
lhand -50.6379 6.43364
lfingers 7.12502
lthumb -23.2013 35.0562
rfemur 21.9681 -12.282 15.7323
rtibia 51.6357
rfoot 2.1077 -0.740239
rtoes -9.78927
lfemur -17.3292 13.9376 -15.0055
ltibia 33.5057
lfoot -1.35994 -16.172
ltoes -10.9582
198
root 4.25282 16.9141 35.8485 -16.5946 1.97102 -5.95328
lowerback 10.6047 3.25815 4.26803
upperback 3.62553 4.8265 1.89174
thorax -1.96078 2.41924 -1.00368
lowerneck -15.1288 -8.44286 -11.1235
upperneck 26.9506 -11.9011 9.5007
head 12.7606 -5.299 3.58051
rclavicle -7.47927e-015 -1.43125e-014
rhumerus -42.4071 26.609 -96.6679
rradius 115.801
rwrist 37.6312
rhand -51.061 -24.6782
rfingers 7.12502
rthumb -23.6071 -53.249
lclavicle -7.47927e-015 -1.43125e-014
lhumerus -78.2986 -22.4717 95.2939
lradius 70.3574
lwrist -14.9943
lhand -49.7277 5.01238
lfingers 7.12502
lthumb -22.3278 33.7423
rfemur 20.805 -12.8467 15.3704
rtibia 57.7632
rfoot 0.0519481 -2.41131
rtoes -10.6203
lfemur -14.7306 13.8681 -13.8134
ltibia 33.0023
lfoot 0.962301 -18.9607
ltoes -11.7856
